<?xml version="1.0" encoding="UTF-8"?>
<svg width="700pt" height="700pt" version="1.1" viewBox="0 0 700 700" xmlns="http://www.w3.org/2000/svg">
 <path d="m574 5.6016c-39.199 0-78.398 39.199-98 64.398-61.602-19.602-123.2 28-159.6 81.199-28 42-67.199 78.402-114.8 100.8-58.801 30.801-114.8 95.199-100.8 173.6 8.3984 25.199 11.199 39.199 16.801 61.602 16.801 84 173.6 95.199 274.4 0 70-67.203 120.4-151.2 145.6-240.8 14-39.199 14-100.8-16.801-145.6 16.801-22.398 39.199-42 53.199-42 16.801 0 28-11.199 28-28 0-16.797-14-25.195-28-25.195zm-120.4 114.8c28 0 39.199 42 39.199 70-39.199 2.8008-72.801-22.398-86.801-53.199 11.199-11.199 30.801-19.598 47.602-16.801zm-100.8 327.6c-72.801 70-173.6 56-179.2 28 0 0-19.602-61.602-19.602-64.398-8.3984-44.801 28-86.801 70-109.2 56-28 103.6-70 137.2-120.4v-2.8008c25.199 39.199 67.199 64.398 114.8 67.199-19.602 75.598-64.398 142.8-123.2 201.6z"/>
</svg>
